<?xml version="1.0" standalone="no"?>
<!DOCTYPE svg PUBLIC "-//W3C//DTD SVG 1.1//EN"
  "http://www.w3.org/Graphics/SVG/1.1/DTD/svg11.dtd">
<svg width="411mm" height="440.9999999999999mm" viewBox="-176 -335.99999999999994 411 440.9999999999999" xmlns="http://www.w3.org/2000/svg" version="1.1">
	<title>svgOutput</title>
	<desc>made with tinkercad</desc>
<path d="M 106 -127.99999999999997 L 96 -127.99999999999997 L 76 -127.99999999999997 L 76 -137.49999999999997 L 46 -137.49999999999997 L 46 -127.99999999999997 L 16 -127.99999999999997 L 16 -137.49999999999997 L -14 -137.49999999999997 L -14 -127.99999999999997 L -34 -127.99999999999997 L -44 -127.99999999999997 L -44 -137.99999999999997 L -44 -167.99999999999997 L -34 -167.99999999999997 L -34 -214.99999999999994 L -44 -214.99999999999994 L -44 -244.99999999999994 L -34 -244.99999999999994 L -34 -292.99999999999994 L -44 -292.99999999999994 L -44 -322.99999999999994 L -44 -332.99999999999994 L -34 -332.99999999999994 L -14 -332.99999999999994 L -14 -322.99999999999994 L -34 -322.99999999999994 L -34 -322.49999999999994 L 96 -322.49999999999994 L 96 -322.99999999999994 L 76 -322.99999999999994 L 76 -332.99999999999994 L 96 -332.99999999999994 L 106 -332.99999999999994 L 106 -322.99999999999994 L 106 -301.99999999999994 L 106 -292.99999999999994 L 96 -292.99999999999994 L 96 -244.99999999999994 L 106 -244.99999999999994 L 106 -214.99999999999994 L 96 -214.99999999999994 L 96 -167.99999999999997 L 106 -167.99999999999997 L 106 -151.99999999999997 L 106 -137.99999999999997 L 106 -127.99999999999997 M 129.0030059814453 -151.99999999999997 L 129.0030059814453 -161.99800109863278 L 129.0030059814453 -181.99899291992185 L 124 -181.99899291992185 L 124 -211.99999999999994 L 129.0030059814453 -211.99999999999994 L 129.0030059814453 -242.00100708007807 L 124 -242.00100708007807 L 124 -272.0020141601562 L 129.0030059814453 -272.0020141601562 L 129.0030059814453 -292.0020141601562 L 129.0030059814453 -301.99999999999994 L 179 -301.99999999999994 L 228.9980010986328 -301.99999999999994 L 228.9980010986328 -292.0020141601562 L 228.9980010986328 -272.0020141601562 L 234 -272.0020141601562 L 234 -242.00100708007807 L 228.9980010986328 -242.00100708007807 L 228.9980010986328 -211.99999999999994 L 234 -211.99999999999994 L 234 -181.99899291992185 L 228.9980010986328 -181.99899291992185 L 228.9980010986328 -161.99800109863278 L 228.9980010986328 -151.99999999999997 L 179 -151.99999999999997 L 129.0030059814453 -151.99999999999997 M 232 42.00199890136718 L 226.9980010986328 42.00199890136718 L 226.9980010986328 62.00199890136717 L 226.9980010986328 71.99999999999999 L 177 71.99999999999999 L 127.00299835205078 71.99999999999999 L 127.00299835205078 62.00199890136717 L 127.00299835205078 42.00199890136718 L 122 42.00199890136718 L 122 12.001000404357907 L 127.00299835205078 12.001000404357907 L 127.00299835205078 -18.00099945068359 L 122 -18.00099945068359 L 122 -48.00199890136717 L 127.00299835205078 -48.00199890136717 L 127.00299835205078 -68.00199890136717 L 127.00299835205078 -77.99999999999999 L 177 -77.99999999999999 L 226.9980010986328 -77.99999999999999 L 226.9980010986328 -68.00199890136717 L 226.9980010986328 -48.00199890136717 L 232 -48.00199890136717 L 232 -18.00099945068359 L 226.9980010986328 -18.00099945068359 L 226.9980010986328 12.001000404357907 L 232 12.001000404357907 L 232 42.00199890136718 M 106 102.99999999999997 L 96 102.99999999999997 L 76 102.99999999999997 L 76 92.99999999999999 L 46 92.99999999999999 L 46 102.99999999999997 L 16 102.99999999999997 L 16 92.99999999999999 L 7.999000072479248 92.99999999999999 L -14 92.99999999999999 L -14 102.99999999999997 L -34 102.99999999999997 L -44 102.99999999999997 L -44 92.99999999999999 L -44 62.999999999999986 L -34 62.999999999999986 L -34 15.999999999999996 L -44 15.999999999999996 L -44 -13.999999999999996 L -34 -13.999999999999996 L -34 -61.999999999999986 L -44 -61.999999999999986 L -44 -91.99999999999999 L -44 -101.99999999999997 L -34 -101.99999999999997 L -14 -101.99999999999997 L -14 -91.99999999999999 L -11.001999855041504 -91.99999999999999 L 7.999000072479248 -91.99999999999999 L 12.99899959564209 -91.99999999999999 L 16 -91.99999999999999 L 16 -101.99999999999997 L 46 -101.99999999999997 L 46 -91.99999999999999 L 76 -91.99999999999999 L 76 -101.99999999999997 L 96 -101.99999999999997 L 106 -101.99999999999997 L 106 -91.99999999999999 L 106 -77.99999999999999 L 106 -61.999999999999986 L 96 -61.999999999999986 L 96 -57.50199890136717 L 96 -42.25099945068359 L 96 -31.250999450683587 L 96 -27.250999450683587 L 96 -22.75099945068359 L 96 -13.999999999999996 L 106 -13.999999999999996 L 106 15.999999999999996 L 96 15.999999999999996 L 96 28.250999450683587 L 96 39.25099945068359 L 96 43.25099945068359 L 96 47.75099945068359 L 96 62.999999999999986 L 106 62.999999999999986 L 106 71.99999999999999 L 106 92.99999999999999 L 106 102.99999999999997 M 46 -332.99999999999994 L 46 -322.99999999999994 L 16 -322.99999999999994 L 16 -332.99999999999994 L 46 -332.99999999999994 M -70.00299835205078 -334.99999999999994 L -70.00299835205078 -325.0020141601562 L -70.00299835205078 -295.0020141601562 L -65 -295.0020141601562 L -65 -246.99999999999994 L -70.00299835205078 -246.99999999999994 L -70.00299835205078 -216.99999999999994 L -65 -216.99999999999994 L -65 -169.99800109863278 L -70.00299835205078 -169.99800109863278 L -70.00299835205078 -139.99800109863278 L -70.00299835205078 -129.99999999999997 L -120 -129.99999999999997 L -169.9980010986328 -129.99999999999997 L -169.9980010986328 -139.99800109863278 L -169.9980010986328 -169.99800109863278 L -175 -169.99800109863278 L -175 -217.99999999999994 L -169.9980010986328 -217.99999999999994 L -169.9980010986328 -247.99999999999994 L -175 -247.99999999999994 L -175 -295.0020141601562 L -169.9980010986328 -295.0020141601562 L -169.9980010986328 -325.0020141601562 L -169.9980010986328 -334.99999999999994 L -120 -334.99999999999994 L -70.00299835205078 -334.99999999999994 M -70.00299835205078 -100.99999999999997 L -70.00299835205078 -91.00199890136717 L -70.00299835205078 -61.00199890136717 L -65 -61.00199890136717 L -65 -12.999999999999996 L -70.00299835205078 -12.999999999999996 L -70.00299835205078 16.999999999999996 L -65 16.999999999999996 L -65 64.00199890136717 L -70.00299835205078 64.00199890136717 L -70.00299835205078 94.00199890136717 L -70.00299835205078 103.99999999999997 L -120 103.99999999999997 L -169.9980010986328 103.99999999999997 L -169.9980010986328 94.00199890136717 L -169.9980010986328 64.00199890136717 L -175 64.00199890136717 L -175 15.999999999999996 L -169.9980010986328 15.999999999999996 L -169.9980010986328 -13.999999999999996 L -175 -13.999999999999996 L -175 -61.00199890136717 L -169.9980010986328 -61.00199890136717 L -169.9980010986328 -91.00199890136717 L -169.9980010986328 -100.99999999999997 L -120 -100.99999999999997 L -70.00299835205078 -100.99999999999997 M 8.121000289916992 9.727999687194822 L 7.999000072479248 10.499999999999998 L 8.121000289916992 11.272999763488768 L 8.192000389099121 11.41200828552246 L 8.47700023651123 11.970000267028807 L 8.795000076293945 12.28800010681152 L 9.029999732971191 12.522999763488766 L 9.72700023651123 12.87800025939941 L 10.49899959564209 12.999999999999996 L 11.272000312805176 12.87800025939941 L 11.968999862670898 12.522999763488766 L 12.204000473022461 12.28800010681152 L 12.522000312805176 11.970000267028807 L 12.876999855041504 11.272999763488768 L 12.99899959564209 10.499999999999998 L 12.876999855041504 9.727999687194822 L 12.522000312805176 9.0310001373291 L 11.968999862670898 8.477999687194822 L 11.40747356414795 8.19200038909912 L 11.272000312805176 8.123000144958494 L 10.49899959564209 7.999999999999998 L 9.72700023651123 8.123000144958494 L 9.591526985168457 8.19200038909912 L 9.029999732971191 8.477999687194822 L 8.47700023651123 9.0310001373291 L 8.192000389099121 9.588991165161131 L 8.121000289916992 9.727999687194822 M 9.72700023651123 6.377999782562254 L 10.49899959564209 6.499999999999998 L 11.272000312805176 6.377999782562254 L 11.968999862670898 6.022999763488768 L 12.522000312805176 5.4699997901916495 L 12.876999855041504 4.772999763488769 L 12.983848571777344 4.09600019454956 L 12.99899959564209 3.999999999999999 L 12.876999855041504 3.2279999256134024 L 12.522000312805176 2.530999898910522 L 11.968999862670898 1.9780000448226924 L 11.272000312805176 1.6219999790191646 L 10.49899959564209 1.4999999999999996 L 9.72700023651123 1.6219999790191646 L 9.029999732971191 1.9780000448226924 L 8.47700023651123 2.530999898910522 L 8.121000289916992 3.2279999256134024 L 7.999000072479248 3.999999999999999 L 8.014151573181152 4.09600019454956 L 8.121000289916992 4.772999763488769 L 8.47700023651123 5.4699997901916495 L 9.029999732971191 6.022999763488768 L 9.72700023651123 6.377999782562254 M 9.72700023651123 -1.1219999790191646 L 10.49899959564209 -0.9999999999999997 L 11.272000312805176 -1.1219999790191646 L 11.968999862670898 -1.476999998092651 L 12.522000312805176 -2.030999898910522 L 12.876999855041504 -2.727999925613403 L 12.99899959564209 -3.499999999999999 L 12.904934883117676 -4.09600019454956 L 12.876999855041504 -4.272999763488769 L 12.522000312805176 -4.9699997901916495 L 11.968999862670898 -5.522999763488769 L 11.272000312805176 -5.877999782562255 L 10.49899959564209 -5.999999999999998 L 9.72700023651123 -5.877999782562255 L 9.029999732971191 -5.522999763488769 L 8.47700023651123 -4.9699997901916495 L 8.121000289916992 -4.272999763488769 L 8.093064308166504 -4.09600019454956 L 7.999000072479248 -3.499999999999999 L 8.121000289916992 -2.727999925613403 L 8.47700023651123 -2.030999898910522 L 9.029999732971191 -1.476999998092651 L 9.72700023651123 -1.1219999790191646 M 9.72700023651123 -7.623000144958494 L 10.49899959564209 -7.499999999999998 L 11.272000312805176 -7.623000144958494 L 11.968999862670898 -7.978000164031981 L 12.182999610900879 -8.19200038909912 L 12.522000312805176 -8.5310001373291 L 12.876999855041504 -9.227999687194822 L 12.99899959564209 -9.999999999999998 L 12.876999855041504 -10.772999763488768 L 12.522000312805176 -11.470000267028807 L 11.968999862670898 -12.022999763488766 L 11.272000312805176 -12.37800025939941 L 10.49899959564209 -12.499999999999996 L 9.72700023651123 -12.37800025939941 L 9.029999732971191 -12.022999763488766 L 8.47700023651123 -11.470000267028807 L 8.192000389099121 -10.91200828552246 L 8.121000289916992 -10.772999763488768 L 7.999000072479248 -9.999999999999998 L 8.121000289916992 -9.227999687194822 L 8.192000389099121 -9.088991165161131 L 8.47700023651123 -8.5310001373291 L 8.815999984741211 -8.19200038909912 L 9.029999732971191 -7.978000164031981 L 9.72700023651123 -7.623000144958494 M 9.72700023651123 -22.872999191284176 L 10.49899959564209 -22.75099945068359 L 11.272000312805176 -22.872999191284176 L 11.968999862670898 -23.228000640869137 L 12.522000312805176 -23.781000137329098 L 12.876999855041504 -24.478000640869134 L 12.89246654510498 -24.57600021362304 L 12.99899959564209 -25.250999450683587 L 12.876999855041504 -26.02300071716308 L 12.522000312805176 -26.719999313354485 L 11.968999862670898 -27.27300071716308 L 11.272000312805176 -27.628000259399407 L 10.49899959564209 -27.750999450683587 L 9.72700023651123 -27.628000259399407 L 9.029999732971191 -27.27300071716308 L 8.47700023651123 -26.719999313354485 L 8.121000289916992 -26.02300071716308 L 7.999000072479248 -25.250999450683587 L 8.1055326461792 -24.57600021362304 L 8.121000289916992 -24.478000640869134 L 8.47700023651123 -23.781000137329098 L 9.029999732971191 -23.228000640869137 L 9.72700023651123 -22.872999191284176 M 9.72700023651123 -29.372999191284173 L 10.49899959564209 -29.250999450683587 L 11.272000312805176 -29.372999191284173 L 11.968999862670898 -29.728000640869134 L 12.522000312805176 -30.281000137329094 L 12.876999855041504 -30.978000640869134 L 12.99899959564209 -31.750999450683587 L 12.876999855041504 -32.52399826049804 L 12.752546310424805 -32.76800155639648 L 12.522000312805176 -33.22000122070312 L 11.968999862670898 -33.77399826049804 L 11.272000312805176 -34.12900161743163 L 10.49899959564209 -34.25099945068359 L 9.72700023651123 -34.12900161743163 L 9.029999732971191 -33.77399826049804 L 8.47700023651123 -33.22000122070312 L 8.245804786682129 -32.76800155639648 L 8.121000289916992 -32.52399826049804 L 7.999000072479248 -31.750999450683587 L 8.121000289916992 -30.978000640869134 L 8.47700023651123 -30.281000137329094 L 9.029999732971191 -29.728000640869134 L 9.72700023651123 -29.372999191284173 M 8.121000289916992 -40.02399826049804 L 7.999000072479248 -39.25099945068359 L 8.121000289916992 -38.47900009155273 L 8.192000389099121 -38.33999252319335 L 8.47700023651123 -37.78200149536132 L 9.029999732971191 -37.22900009155273 L 9.72700023651123 -36.873001098632805 L 10.49899959564209 -36.75099945068359 L 11.272000312805176 -36.873001098632805 L 11.968999862670898 -37.22900009155273 L 12.522000312805176 -37.78200149536132 L 12.876999855041504 -38.47900009155273 L 12.99899959564209 -39.25099945068359 L 12.876999855041504 -40.02399826049804 L 12.522000312805176 -40.72100067138671 L 12.282999992370605 -40.95999908447265 L 11.968999862670898 -41.27399826049804 L 11.272000312805176 -41.62900161743163 L 10.49899959564209 -41.75099945068359 L 9.72700023651123 -41.62900161743163 L 9.029999732971191 -41.27399826049804 L 8.715999603271484 -40.95999908447265 L 8.47700023651123 -40.72100067138671 L 8.192000389099121 -40.16300964355468 L 8.121000289916992 -40.02399826049804 M 9.72700023651123 -43.3740005493164 L 10.49899959564209 -43.25099945068359 L 11.272000312805176 -43.3740005493164 L 11.968999862670898 -43.72900009155273 L 12.522000312805176 -44.28200149536132 L 12.876999855041504 -44.97900009155273 L 12.889168739318848 -45.05599975585937 L 12.99899959564209 -45.75099945068359 L 12.876999855041504 -46.52399826049804 L 12.522000312805176 -47.22100067138671 L 11.968999862670898 -47.77399826049804 L 11.272000312805176 -48.129001617431626 L 10.49899959564209 -48.25099945068358 L 9.72700023651123 -48.129001617431626 L 9.029999732971191 -47.77399826049804 L 8.47700023651123 -47.22100067138671 L 8.121000289916992 -46.52399826049804 L 7.999000072479248 -45.75099945068359 L 8.108831405639648 -45.05599975585937 L 8.121000289916992 -44.97900009155273 L 8.47700023651123 -44.28200149536132 L 9.029999732971191 -43.72900009155273 L 9.72700023651123 -43.3740005493164 M 9.72700023651123 -57.62400054931639 L 10.49899959564209 -57.50199890136717 L 11.272000312805176 -57.62400054931639 L 11.968999862670898 -57.97900009155272 L 12.522000312805176 -58.532001495361314 L 12.876999855041504 -59.22900009155272 L 12.99899959564209 -60.00199890136717 L 12.876999855041504 -60.77399826049803 L 12.537789344787598 -61.43999862670897 L 12.522000312805176 -61.471000671386705 L 11.968999862670898 -62.02399826049803 L 11.272000312805176 -62.38000106811522 L 10.49899959564209 -62.50199890136717 L 9.72700023651123 -62.38000106811522 L 9.029999732971191 -62.02399826049803 L 8.47700023651123 -61.471000671386705 L 8.461166381835938 -61.43999862670897 L 8.121000289916992 -60.77399826049803 L 7.999000072479248 -60.00199890136717 L 8.121000289916992 -59.22900009155272 L 8.47700023651123 -58.532001495361314 L 9.029999732971191 -57.97900009155272 L 9.72700023651123 -57.62400054931639 M 9.72700023651123 -64.12400054931639 L 10.49899959564209 -64.00199890136717 L 11.272000312805176 -64.12400054931639 L 11.968999862670898 -64.47899627685545 L 12.522000312805176 -65.03199768066405 L 12.77869987487793 -65.53600311279295 L 12.876999855041504 -65.72899627685545 L 12.99899959564209 -66.50199890136717 L 12.876999855041504 -67.27500152587889 L 12.522000312805176 -67.9720001220703 L 11.968999862670898 -68.52500152587889 L 11.272000312805176 -68.87999725341795 L 10.49899959564209 -69.00199890136717 L 9.72700023651123 -68.87999725341795 L 9.029999732971191 -68.52500152587889 L 8.47700023651123 -67.9720001220703 L 8.121000289916992 -67.27500152587889 L 7.999000072479248 -66.50199890136717 L 8.121000289916992 -65.72899627685545 L 8.219576835632324 -65.53600311279295 L 8.47700023651123 -65.03199768066405 L 9.029999732971191 -64.47899627685545 L 9.72700023651123 -64.12400054931639 M 9.72700023651123 -71.62499999999999 L 10.49899959564209 -71.50199890136717 L 11.272000312805176 -71.62499999999999 L 11.968999862670898 -71.98000335693358 L 12.522000312805176 -72.53299713134764 L 12.876999855041504 -73.23000335693358 L 12.955699920654297 -73.72799682617186 L 12.99899959564209 -74.00199890136717 L 12.876999855041504 -74.77500152587889 L 12.522000312805176 -75.4720001220703 L 11.968999862670898 -76.02500152587889 L 11.272000312805176 -76.37999725341795 L 10.49899959564209 -76.50199890136717 L 9.72700023651123 -76.37999725341795 L 9.029999732971191 -76.02500152587889 L 8.47700023651123 -75.4720001220703 L 8.121000289916992 -74.77500152587889 L 7.999000072479248 -74.00199890136717 L 8.0423002243042 -73.72799682617186 L 8.121000289916992 -73.23000335693358 L 8.47700023651123 -72.53299713134764 L 9.029999732971191 -71.98000335693358 L 9.72700023651123 -71.62499999999999 M 9.72700023651123 -78.12499999999999 L 10.49899959564209 -78.00199890136717 L 11.272000312805176 -78.12499999999999 L 11.968999862670898 -78.48000335693358 L 12.522000312805176 -79.03299713134764 L 12.876999855041504 -79.73000335693358 L 12.99899959564209 -80.50199890136717 L 12.876999855041504 -81.27500152587889 L 12.548484802246094 -81.9199981689453 L 12.522000312805176 -81.9720001220703 L 11.968999862670898 -82.52500152587889 L 11.272000312805176 -82.87999725341795 L 10.49899959564209 -83.00299835205077 L 9.72700023651123 -82.87999725341795 L 9.029999732971191 -82.52500152587889 L 8.47700023651123 -81.9720001220703 L 8.450440406799316 -81.9199981689453 L 8.121000289916992 -81.27500152587889 L 7.999000072479248 -80.50199890136717 L 8.121000289916992 -79.73000335693358 L 8.47700023651123 -79.03299713134764 L 9.029999732971191 -78.48000335693358 L 9.72700023651123 -78.12499999999999 M 35.76499938964844 4.30399990081787 L 37.000999450683594 4.499999999999999 L 38.23699951171875 4.30399990081787 L 39.35200119018555 3.7360000610351554 L 40.23699951171875 2.851000070571899 L 40.80500030517578 1.7359999418258663 L 41.000999450683594 0.5 L 40.92171096801758 1.1102230246251565e-16 L 40.80500030517578 -0.7360000014305113 L 40.23699951171875 -1.8509999513626094 L 39.35200119018555 -2.736000061035156 L 38.23699951171875 -3.30399990081787 L 37.000999450683594 -3.499999999999999 L 35.76499938964844 -3.30399990081787 L 34.650001525878906 -2.736000061035156 L 33.76499938964844 -1.8509999513626094 L 33.19599914550781 -0.7360000014305113 L 33.07988357543945 1.1102230246251565e-16 L 33.000999450683594 0.5 L 33.19599914550781 1.7359999418258663 L 33.76499938964844 2.851000070571899 L 34.650001525878906 3.7360000610351554 L 35.76499938964844 4.30399990081787 M 35.76499938964844 -31.447000503540032 L 37.000999450683594 -31.250999450683587 L 38.23699951171875 -31.447000503540032 L 39.35200119018555 -32.01499938964843 L 40.10499954223633 -32.76800155639648 L 40.23699951171875 -32.9000015258789 L 40.80500030517578 -34.01499938964843 L 41.000999450683594 -35.25099945068359 L 40.80500030517578 -36.48699951171874 L 40.23699951171875 -37.60200119018554 L 39.35200119018555 -38.48699951171874 L 38.23699951171875 -39.055000305175774 L 37.000999450683594 -39.25099945068359 L 35.76499938964844 -39.055000305175774 L 34.650001525878906 -38.48699951171874 L 33.76499938964844 -37.60200119018554 L 33.19599914550781 -36.48699951171874 L 33.000999450683594 -35.25099945068359 L 33.19599914550781 -34.01499938964843 L 33.76499938964844 -32.9000015258789 L 33.89699935913086 -32.76800155639648 L 34.650001525878906 -32.01499938964843 L 35.76499938964844 -31.447000503540032 M 35.76499938964844 -66.19799804687499 L 36.86399841308594 -66.02372741699217 L 37.000999450683594 -66.00199890136717 L 38.23699951171875 -66.19799804687499 L 39.35200119018555 -66.76599884033202 L 40.23699951171875 -67.65100097656249 L 40.80500030517578 -68.76599884033202 L 40.959999084472656 -69.74344635009764 L 41.000999450683594 -70.00199890136717 L 40.959999084472656 -70.2605514526367 L 40.80500030517578 -71.23799896240233 L 40.23699951171875 -72.35299682617186 L 39.35200119018555 -73.23799896240233 L 38.39011764526367 -73.72799682617186 L 38.23699951171875 -73.80599975585936 L 37.000999450683594 -74.00199890136717 L 35.76499938964844 -73.80599975585936 L 35.61188507080078 -73.72799682617186 L 34.650001525878906 -73.23799896240233 L 33.76499938964844 -72.35299682617186 L 33.19599914550781 -71.23799896240233 L 33.000999450683594 -70.00199890136717 L 33.19599914550781 -68.76599884033202 L 33.76499938964844 -67.65100097656249 L 34.650001525878906 -66.76599884033202 L 35.76499938964844 -66.19799804687499 M 9.72700023651123 47.62900161743163 L 10.49899959564209 47.75099945068359 L 11.272000312805176 47.62900161743163 L 11.968999862670898 47.27399826049804 L 12.522000312805176 46.72100067138671 L 12.876999855041504 46.02399826049804 L 12.99899959564209 45.25099945068359 L 12.968183517456055 45.05599975585937 L 12.876999855041504 44.47900009155273 L 12.522000312805176 43.78200149536132 L 11.968999862670898 43.22900009155273 L 11.272000312805176 42.8740005493164 L 10.49899959564209 42.75099945068359 L 9.72700023651123 42.8740005493164 L 9.029999732971191 43.22900009155273 L 8.47700023651123 43.78200149536132 L 8.121000289916992 44.47900009155273 L 8.029815673828125 45.05599975585937 L 7.999000072479248 45.25099945068359 L 8.121000289916992 46.02399826049804 L 8.47700023651123 46.72100067138671 L 9.029999732971191 47.27399826049804 L 9.72700023651123 47.62900161743163 M 11.272000312805176 41.12900161743163 L 11.603811264038086 40.95999908447265 L 11.968999862670898 40.77399826049804 L 12.288000106811523 40.45500183105468 L 12.522000312805176 40.22100067138671 L 12.876999855041504 39.52399826049804 L 12.99899959564209 38.75099945068359 L 12.876999855041504 37.97900009155273 L 12.522000312805176 37.28200149536132 L 12.288000106811523 37.04800033569335 L 11.968999862670898 36.72900009155273 L 11.272000312805176 36.373001098632805 L 10.49899959564209 36.25099945068359 L 9.72700023651123 36.373001098632805 L 9.029999732971191 36.72900009155273 L 8.47700023651123 37.28200149536132 L 8.192000389099121 37.83999252319335 L 8.121000289916992 37.97900009155273 L 7.999000072479248 38.75099945068359 L 8.121000289916992 39.52399826049804 L 8.192000389099121 39.66300964355468 L 8.47700023651123 40.22100067138671 L 9.029999732971191 40.77399826049804 L 9.395188331604004 40.95999908447265 L 9.72700023651123 41.12900161743163 L 10.49899959564209 41.25099945068359 L 11.272000312805176 41.12900161743163 M 9.72700023651123 33.62900161743163 L 10.49899959564209 33.75099945068359 L 11.272000312805176 33.62900161743163 L 11.968999862670898 33.27399826049804 L 12.47408676147461 32.76800155639648 L 12.522000312805176 32.72000122070312 L 12.876999855041504 32.02399826049804 L 12.99899959564209 31.250999450683587 L 12.876999855041504 30.478000640869134 L 12.522000312805176 29.781000137329094 L 11.968999862670898 29.228000640869134 L 11.272000312805176 28.872999191284173 L 10.49899959564209 28.750999450683587 L 9.72700023651123 28.872999191284173 L 9.029999732971191 29.228000640869134 L 8.47700023651123 29.781000137329094 L 8.192000389099121 30.338991165161126 L 8.121000289916992 30.478000640869134 L 7.999000072479248 31.250999450683587 L 8.121000289916992 32.02399826049804 L 8.192000389099121 32.1628074645996 L 8.47700023651123 32.72000122070312 L 8.524913787841797 32.76800155639648 L 9.029999732971191 33.27399826049804 L 9.72700023651123 33.62900161743163 M 9.72700023651123 27.128000259399407 L 10.49899959564209 27.250999450683587 L 11.272000312805176 27.128000259399407 L 11.968999862670898 26.77300071716308 L 12.522000312805176 26.219999313354485 L 12.876999855041504 25.52300071716308 L 12.99899959564209 24.750999450683587 L 12.971380233764648 24.57600021362304 L 12.876999855041504 23.978000640869137 L 12.522000312805176 23.281000137329098 L 11.968999862670898 22.728000640869137 L 11.272000312805176 22.372999191284176 L 10.49899959564209 22.25099945068359 L 9.72700023651123 22.372999191284176 L 9.029999732971191 22.728000640869137 L 8.47700023651123 23.281000137329098 L 8.121000289916992 23.978000640869137 L 8.026619911193848 24.57600021362304 L 7.999000072479248 24.750999450683587 L 8.121000289916992 25.52300071716308 L 8.47700023651123 26.219999313354485 L 9.029999732971191 26.77300071716308 L 9.72700023651123 27.128000259399407 M 35.76499938964844 39.055000305175774 L 37.000999450683594 39.25099945068359 L 38.23699951171875 39.055000305175774 L 39.35200119018555 38.48699951171874 L 40.23699951171875 37.60200119018554 L 40.80500030517578 36.48699951171874 L 41.000999450683594 35.25099945068359 L 40.80500030517578 34.01499938964843 L 40.23699951171875 32.9000015258789 L 40.10499954223633 32.76800155639648 L 39.35200119018555 32.01499938964843 L 38.23699951171875 31.447000503540032 L 37.000999450683594 31.250999450683587 L 35.76499938964844 31.447000503540032 L 34.650001525878906 32.01499938964843 L 33.89699935913086 32.76800155639648 L 33.76499938964844 32.9000015258789 L 33.19599914550781 34.01499938964843 L 33.000999450683594 35.25099945068359 L 33.19599914550781 36.48699951171874 L 33.76499938964844 37.60200119018554 L 34.650001525878906 38.48699951171874 L 35.76499938964844 39.055000305175774 M 9.72700023651123 82.37999725341795 L 10.49899959564209 82.50299835205077 L 11.272000312805176 82.37999725341795 L 11.968999862670898 82.02500152587889 L 12.074000358581543 81.9199981689453 L 12.522000312805176 81.4720001220703 L 12.876999855041504 80.77500152587889 L 12.99899959564209 80.00199890136717 L 12.876999855041504 79.23000335693358 L 12.522000312805176 78.53299713134764 L 11.968999862670898 77.98000335693358 L 11.272000312805176 77.62499999999999 L 10.49899959564209 77.50199890136717 L 9.72700023651123 77.62499999999999 L 9.029999732971191 77.98000335693358 L 8.47700023651123 78.53299713134764 L 8.192000389099121 79.09098815917967 L 8.121000289916992 79.23000335693358 L 7.999000072479248 80.00199890136717 L 8.121000289916992 80.77500152587889 L 8.192000389099121 80.91400909423827 L 8.47700023651123 81.4720001220703 L 8.925000190734863 81.9199981689453 L 9.029999732971191 82.02500152587889 L 9.72700023651123 82.37999725341795 M 9.72700023651123 75.87999725341795 L 10.49899959564209 76.00199890136717 L 11.272000312805176 75.87999725341795 L 11.968999862670898 75.52500152587889 L 12.522000312805176 74.9720001220703 L 12.876999855041504 74.27500152587889 L 12.96333122253418 73.72799682617186 L 12.99899959564209 73.50199890136717 L 12.876999855041504 72.73000335693358 L 12.522000312805176 72.03299713134764 L 11.968999862670898 71.48000335693358 L 11.272000312805176 71.12499999999999 L 10.49899959564209 71.00199890136717 L 9.72700023651123 71.12499999999999 L 9.029999732971191 71.48000335693358 L 8.47700023651123 72.03299713134764 L 8.121000289916992 72.73000335693358 L 7.999000072479248 73.50199890136717 L 8.034668922424316 73.72799682617186 L 8.121000289916992 74.27500152587889 L 8.47700023651123 74.9720001220703 L 9.029999732971191 75.52500152587889 L 9.72700023651123 75.87999725341795 M 9.72700023651123 68.37999725341795 L 10.49899959564209 68.50199890136717 L 11.272000312805176 68.37999725341795 L 11.968999862670898 68.02500152587889 L 12.522000312805176 67.4720001220703 L 12.876999855041504 66.77500152587889 L 12.99899959564209 66.00199890136717 L 12.925453186035156 65.53600311279295 L 12.876999855041504 65.22899627685545 L 12.522000312805176 64.53199768066405 L 11.968999862670898 63.97900009155272 L 11.272000312805176 63.62400054931639 L 10.49899959564209 63.50199890136717 L 9.72700023651123 63.62400054931639 L 9.029999732971191 63.97900009155272 L 8.47700023651123 64.53199768066405 L 8.121000289916992 65.22899627685545 L 8.07254695892334 65.53600311279295 L 7.999000072479248 66.00199890136717 L 8.121000289916992 66.77500152587889 L 8.47700023651123 67.4720001220703 L 9.029999732971191 68.02500152587889 L 9.72700023651123 68.37999725341795 M 8.121000289916992 58.72900009155272 L 7.999000072479248 59.50199890136717 L 8.121000289916992 60.27399826049803 L 8.192000389099121 60.41300964355467 L 8.47700023651123 60.971000671386705 L 9.029999732971191 61.52399826049803 L 9.72700023651123 61.88000106811522 L 10.49899959564209 62.00199890136717 L 11.272000312805176 61.88000106811522 L 11.968999862670898 61.52399826049803 L 12.288000106811523 61.20500183105467 L 12.522000312805176 60.971000671386705 L 12.876999855041504 60.27399826049803 L 12.99899959564209 59.50199890136717 L 12.876999855041504 58.72900009155272 L 12.522000312805176 58.032001495361314 L 12.288000106811523 57.798000335693345 L 11.968999862670898 57.47900009155272 L 11.703943252563477 57.34400177001952 L 11.272000312805176 57.12400054931639 L 10.49899959564209 57.00199890136717 L 9.72700023651123 57.12400054931639 L 9.295056343078613 57.34400177001952 L 9.029999732971191 57.47900009155272 L 8.47700023651123 58.032001495361314 L 8.192000389099121 58.589992523193345 L 8.121000289916992 58.72900009155272 M 35.76499938964844 73.80599975585936 L 37.000999450683594 74.00199890136717 L 38.23699951171875 73.80599975585936 L 38.39011764526367 73.72799682617186 L 39.35200119018555 73.23799896240233 L 40.23699951171875 72.35299682617186 L 40.80500030517578 71.23799896240233 L 40.959999084472656 70.2605514526367 L 41.000999450683594 70.00199890136717 L 40.959999084472656 69.74344635009764 L 40.80500030517578 68.76599884033202 L 40.23699951171875 67.65100097656249 L 39.35200119018555 66.76599884033202 L 38.23699951171875 66.19799804687499 L 37.000999450683594 66.00199890136717 L 36.86399841308594 66.02372741699217 L 35.76499938964844 66.19799804687499 L 34.650001525878906 66.76599884033202 L 33.76499938964844 67.65100097656249 L 33.19599914550781 68.76599884033202 L 33.000999450683594 70.00199890136717 L 33.19599914550781 71.23799896240233 L 33.76499938964844 72.35299682617186 L 34.650001525878906 73.23799896240233 L 35.61188507080078 73.72799682617186 L 35.76499938964844 73.80599975585936 M -17.354000091552734 3.7360000610351554 L -16.384000778198242 4.229691982269286 L -16.238000869750977 4.30399990081787 L -15.001999855041504 4.499999999999999 L -13.765999794006348 4.30399990081787 L -12.651000022888184 3.7360000610351554 L -11.765999794006348 2.851000070571899 L -11.197999954223633 1.7359999418258663 L -11.001999855041504 0.5 L -11.197999954223633 -0.7360000014305113 L -11.765999794006348 -1.8509999513626094 L -12.651000022888184 -2.736000061035156 L -13.765999794006348 -3.30399990081787 L -15.001999855041504 -3.499999999999999 L -16.238000869750977 -3.30399990081787 L -16.384000778198242 -3.229691743850707 L -17.354000091552734 -2.736000061035156 L -18.23900032043457 -1.8509999513626094 L -18.80699920654297 -0.7360000014305113 L -19.003000259399414 0.5 L -18.80699920654297 1.7359999418258663 L -18.23900032043457 2.851000070571899 L -17.354000091552734 3.7360000610351554 M -17.354000091552734 -32.01499938964843 L -16.384000778198242 -31.521308898925774 L -16.238000869750977 -31.447000503540032 L -15.001999855041504 -31.250999450683587 L -13.765999794006348 -31.447000503540032 L -12.651000022888184 -32.01499938964843 L -11.765999794006348 -32.9000015258789 L -11.197999954223633 -34.01499938964843 L -11.001999855041504 -35.25099945068359 L -11.197999954223633 -36.48699951171874 L -11.765999794006348 -37.60200119018554 L -12.651000022888184 -38.48699951171874 L -13.765999794006348 -39.055000305175774 L -15.001999855041504 -39.25099945068359 L -16.238000869750977 -39.055000305175774 L -16.384000778198242 -38.9806900024414 L -17.354000091552734 -38.48699951171874 L -18.23900032043457 -37.60200119018554 L -18.80699920654297 -36.48699951171874 L -19.003000259399414 -35.25099945068359 L -18.80699920654297 -34.01499938964843 L -18.23900032043457 -32.9000015258789 L -17.354000091552734 -32.01499938964843 M -17.354000091552734 -66.76599884033202 L -16.384000778198242 -66.27230834960936 L -16.238000869750977 -66.19799804687499 L -15.001999855041504 -66.00199890136717 L -13.765999794006348 -66.19799804687499 L -12.651000022888184 -66.76599884033202 L -11.765999794006348 -67.65100097656249 L -11.197999954223633 -68.76599884033202 L -11.001999855041504 -70.00199890136717 L -11.197999954223633 -71.23799896240233 L -11.765999794006348 -72.35299682617186 L -12.651000022888184 -73.23799896240233 L -13.765999794006348 -73.80599975585936 L -15.001999855041504 -74.00199890136717 L -16.238000869750977 -73.80599975585936 L -16.384000778198242 -73.73168945312499 L -17.354000091552734 -73.23799896240233 L -18.23900032043457 -72.35299682617186 L -18.80699920654297 -71.23799896240233 L -19.003000259399414 -70.00199890136717 L -18.80699920654297 -68.76599884033202 L -18.23900032043457 -67.65100097656249 L -17.354000091552734 -66.76599884033202 M -17.354000091552734 38.48699951171874 L -16.384000778198242 38.9806900024414 L -16.238000869750977 39.055000305175774 L -15.001999855041504 39.25099945068359 L -13.765999794006348 39.055000305175774 L -12.651000022888184 38.48699951171874 L -11.765999794006348 37.60200119018554 L -11.197999954223633 36.48699951171874 L -11.001999855041504 35.25099945068359 L -11.197999954223633 34.01499938964843 L -11.765999794006348 32.9000015258789 L -12.651000022888184 32.01499938964843 L -13.765999794006348 31.447000503540032 L -15.001999855041504 31.250999450683587 L -16.238000869750977 31.447000503540032 L -16.384000778198242 31.521308898925774 L -17.354000091552734 32.01499938964843 L -18.23900032043457 32.9000015258789 L -18.80699920654297 34.01499938964843 L -19.003000259399414 35.25099945068359 L -18.80699920654297 36.48699951171874 L -18.23900032043457 37.60200119018554 L -17.354000091552734 38.48699951171874 M -17.354000091552734 73.23799896240233 L -16.384000778198242 73.73168945312499 L -16.238000869750977 73.80599975585936 L -15.001999855041504 74.00199890136717 L -13.765999794006348 73.80599975585936 L -12.651000022888184 73.23799896240233 L -11.765999794006348 72.35299682617186 L -11.197999954223633 71.23799896240233 L -11.001999855041504 70.00199890136717 L -11.197999954223633 68.76599884033202 L -11.765999794006348 67.65100097656249 L -12.651000022888184 66.76599884033202 L -13.765999794006348 66.19799804687499 L -15.001999855041504 66.00199890136717 L -16.238000869750977 66.19799804687499 L -16.384000778198242 66.27230834960936 L -17.354000091552734 66.76599884033202 L -18.23900032043457 67.65100097656249 L -18.80699920654297 68.76599884033202 L -19.003000259399414 70.00199890136717 L -18.80699920654297 71.23799896240233 L -18.23900032043457 72.35299682617186 L -17.354000091552734 73.23799896240233 M 61.00199890136719 -6.499999999999998 L 61.00199890136719 4.499999999999999 L 61.00199890136719 8.499999999999998 L 66.00299835205078 8.499999999999998 L 66.00299835205078 4.499999999999999 L 66.00299835205078 -6.499999999999998 L 61.00199890136719 -6.499999999999998 M 61.00199890136719 -42.25099945068359 L 61.00199890136719 -31.250999450683587 L 61.00199890136719 -27.250999450683587 L 66.00299835205078 -27.250999450683587 L 66.00299835205078 -31.250999450683587 L 66.00299835205078 -42.25099945068359 L 61.00199890136719 -42.25099945068359 M 61.00199890136719 -77.00199890136717 L 61.00199890136719 -66.00199890136717 L 61.00199890136719 -62.00199890136717 L 66.00299835205078 -62.00199890136717 L 66.00299835205078 -66.00199890136717 L 66.00299835205078 -77.00199890136717 L 61.00199890136719 -77.00199890136717 M 61.00199890136719 28.250999450683587 L 61.00199890136719 39.25099945068359 L 61.00199890136719 43.25099945068359 L 66.00299835205078 43.25099945068359 L 66.00299835205078 39.25099945068359 L 66.00299835205078 28.250999450683587 L 61.00199890136719 28.250999450683587 M 61.00199890136719 63.00199890136717 L 61.00199890136719 74.00199890136717 L 61.00199890136719 78.00199890136717 L 66.00299835205078 78.00199890136717 L 66.00299835205078 74.00199890136717 L 66.00299835205078 63.00199890136717 L 61.00199890136719 63.00199890136717 z" fill="none" stroke="rgb(255,0,0)" stroke-width="0.001mm" />
</svg>